<svg width="52" height="52" viewBox="0 0 52 52" fill="none" xmlns="http://www.w3.org/2000/svg">
<path d="M47.1249 1.05615H4.8749C2.7624 1.05615 1.05615 2.7624 1.05615 4.8749V47.1249C1.05615 49.2374 2.7624 51.0249 4.95615 51.0249H47.2062C49.3187 51.0249 51.1062 49.3187 51.1062 47.1249V4.8749C51.0249 2.7624 49.2374 1.05615 47.1249 1.05615ZM4.8749 3.8999H47.1249C47.6937 3.8999 48.1812 4.3874 48.1812 4.95615V16.5749H3.8999V4.8749C3.8999 4.30615 4.30615 3.8999 4.8749 3.8999ZM23.3999 19.3374H48.1812V32.5812H23.3999V19.3374ZM3.8999 47.1249V19.3374H20.5562V48.0999H4.8749C4.30615 48.1812 3.8999 47.6937 3.8999 47.1249ZM47.1249 48.1812H23.3999V35.5062H48.1812V47.1249C48.1812 47.6937 47.6937 48.1812 47.1249 48.1812Z" fill="#181725"/>
</svg>
