<svg width="52" height="52" viewBox="0 0 52 52" fill="none" xmlns="http://www.w3.org/2000/svg">
<path d="M15.1127 12.9999C15.6002 12.4311 15.6002 11.5374 15.0314 10.9686C14.4627 10.4811 13.5689 10.4811 13.0002 11.0499L1.9502 23.4811C0.731445 24.8624 0.731445 27.0561 1.9502 28.4374L13.0002 40.9499C13.2439 41.2749 13.6502 41.4374 14.0564 41.4374C14.3814 41.4374 14.7064 41.3561 15.0314 41.1124C15.6002 40.6249 15.6814 39.6499 15.1127 39.0811L4.0627 26.5686C3.81895 26.2436 3.81895 25.6749 4.0627 25.3499L15.1127 12.9999Z" fill="#181725"/>
<path d="M50.0501 23.4812L39.0001 11.0499C38.5126 10.4812 37.6189 10.3999 36.9689 10.9687C36.4001 11.4562 36.3189 12.3499 36.8876 12.9999L47.9376 25.4312C48.1814 25.7562 48.1814 26.3249 47.9376 26.6499L36.8876 38.9999C36.4001 39.5687 36.4001 40.4624 36.9689 41.0312C37.2126 41.2749 37.6189 41.3562 37.9439 41.3562C38.3501 41.3562 38.7564 41.1937 39.0001 40.8687L50.0501 28.4374C51.2689 27.0562 51.2689 24.9437 50.0501 23.4812Z" fill="#181725"/>
<path d="M30.875 11.3748C30.1438 11.1311 29.3313 11.5373 29.0875 12.2686L20.15 38.8373C19.9875 39.5686 20.3125 40.3811 21.125 40.6248C21.2875 40.7061 21.45 40.7061 21.6125 40.7061C22.1813 40.7061 22.75 40.2998 22.9937 39.7311L31.9313 13.1623C32.0125 12.4311 31.6875 11.6186 30.875 11.3748Z" fill="#181725"/>
</svg>
